# xmcd CD database file
#
# Track frame offsets:
#	150
#	35425
#	62300
#	95725
#	128400
#	156375
#	183225
#	205850
#	229900
#	248100
#
# Disc length: 3782 seconds
#
# Revision: 0
# Processed by: cddbd v1.5.2PL0 Copyright (c) Steve Scherf et al.
# Submitted via: CDex 1.70beta2
#
DISCID=7e0ec40a
DTITLE=Peter Clérin - Source
DYEAR=1900
DGENRE=New Age
TTITLE0=Joie
TTITLE1=Universel
TTITLE2=Réflexion
TTITLE3=Mission
TTITLE4=Transformation
TTITLE5=Introspection
TTITLE6=Émergence
TTITLE7=Vision
TTITLE8=Grâce
TTITLE9=Source
EXTD=
EXTT0=
EXTT1=
EXTT2=
EXTT3=
EXTT4=
EXTT5=
EXTT6=
EXTT7=
EXTT8=
EXTT9=
PLAYORDER=
